# xmcd CD database file
#
# Track frame offsets:
#	150
#	5035
#	31017
#	57615
#	83150
#	113122
#	139100
#	160477
#	188957
#	211575
#	229327
#	242672
#	266060
#	291475
#	309502
#	331515
#
# Disc length: 4631 seconds
#
# Revision: 3
# Processed by: cddbd v1.5.2PL0 Copyright (c) Steve Scherf et al.
# Submitted via: CDex 1.70beta3
#
DISCID=e2121510
DTITLE=吉澤はじめ - Music from the Edge of the Universe
DYEAR=2005
DGENRE=Jazz
TTITLE0=Crescent Moon
TTITLE1=Keep it Movin' featuring vocal: FACE
TTITLE2=Rise me up featuring vocal: akiko
TTITLE3=Beyond the Sunshine featuring vocal: Nina Milanda
TTITLE4=Verao no ar featuring vocal: Catia
TTITLE5=Sweet Way featuring vocal: Vanessa Freeman
TTITLE6=Arpegio in the Forest
TTITLE7=Waltz for Jason featuring saxl: Jason Yard
TTITLE8=終わらない夢 featuring vocal: AMADORI
TTITLE9=A little bit of Joy featuring vocal: AMADORI
TTITLE10=冬の子ども
TTITLE11=Impulse
TTITLE12=Believe Again featuring vocal: Vanessa Freeman
TTITLE13=Favourite Virtual Kiss featuring vocal: FACE
TTITLE14=The Room featuring vocal: RIA
TTITLE15=この道 featuring vocal: bird
EXTD=YEAR: 2005
EXTT0=
EXTT1=
EXTT2=
EXTT3=
EXTT4=
EXTT5=
EXTT6=
EXTT7=
EXTT8=
EXTT9=
EXTT10=
EXTT11=
EXTT12=
EXTT13=
EXTT14=
EXTT15=
PLAYORDER=
